<?xml version="1.0" encoding="utf-8"?>
<!-- Generator: Adobe Illustrator 18.1.0, SVG Export Plug-In . SVG Version: 6.00 Build 0)  -->
<svg version="1.1" id="Your_Icon" xmlns="http://www.w3.org/2000/svg" xmlns:xlink="http://www.w3.org/1999/xlink" x="0px" y="0px"
	 viewBox="-255 347 100 100" enable-background="new -255 347 100 100" xml:space="preserve">
<g>
	<path d="M-203.3,372.8c3,0,5.4-2.4,5.4-5.4c0-3-2.4-5.4-5.4-5.4c-3,0-5.4,2.4-5.4,5.4C-208.7,370.4-206.3,372.8-203.3,372.8z"/>
	<path d="M-183.3,376.8c-1-1-2.6-0.9-3.5,0.1l-3.6,3.8l-6.5-4.6c-0.4-0.3-0.9-0.5-1.4-0.5h-9.6c-0.4,0-0.8,0.1-1.2,0.3l-7.5,4.1
		l-3.8-3.9c-1-1-2.5-1-3.5-0.1c-1,1-1,2.5-0.1,3.5l5.1,5.3c0.8,0.8,2,1,3,0.5l6.4-3.5v30.2c0,1.4,0.8,2.5,2.2,2.5s2.2-1.1,2.2-2.5
		v-18.6h3v18.6c0,1.4,0.8,2.5,2.2,2.5s2.2-1.1,2.2-2.5v-30.4l6.2,4.4c0.4,0.3,0.9,0.5,1.4,0.5c0.7,0,1.3-0.3,1.8-0.8l5.1-5.3
		C-182.3,379.3-182.3,377.7-183.3,376.8z"/>
</g>
<g>
	<path d="M-204.8,353.4c0-1.6,2-1.8,2-2.7c0-0.4-0.3-0.8-1.1-0.8c-0.7,0-1.3,0.3-1.7,0.8l-1.1-1.2c0.7-0.9,1.8-1.3,3-1.3
		c1.8,0,2.8,0.9,2.8,2.2c0,2-2.3,2.1-2.3,3.3c0,0.2,0.1,0.4,0.3,0.6l-1.5,0.4C-204.6,354.3-204.8,353.9-204.8,353.4z M-204.8,356.5
		c0-0.6,0.5-1.1,1.1-1.1c0.6,0,1.1,0.5,1.1,1.1s-0.5,1.1-1.1,1.1C-204.3,357.6-204.8,357.1-204.8,356.5z"/>
</g>
</svg>
