<svg xmlns="http://www.w3.org/2000/svg" xmlns:xlink="http://www.w3.org/1999/xlink" version="1.1" id="Layer_1" x="0px" y="0px" width="100px" height="100px" viewBox="0 0 100 100" enable-background="new 0 0 100 100" xml:space="preserve">
<g>
	<path fill="none" d="M51.513,72.718c-5.952,2.554-15.519-6.43-21.368-20.063c-5.85-13.635-5.767-26.758,0.184-29.311   C36,20.91,44.952,28.956,50.844,41.517l3.806-1.702c-7.717-16.435-21.054-26.36-30.434-22.335   c-9.745,4.181-11.527,21.833-3.979,39.425c7.548,17.594,21.566,28.466,31.312,24.285c9.462-4.06,11.416-20.815,4.613-37.888   l-3.809,1.703C57.528,58.052,57.23,70.265,51.513,72.718z"/>
	<path fill="none" d="M46.827,53.464c-1.125,0.481-3.285-2.035-4.823-5.623c-1.539-3.587-1.875-6.886-0.751-7.369   c0.9-0.386,2.462,1.15,3.838,3.616l2.278-1.019c-3.324-6.906-7.93-11.403-10.674-10.227c-2.952,1.267-2.631,8.617,0.715,16.417   c3.347,7.799,8.452,13.096,11.404,11.831c2.71-1.163,2.656-7.46,0.038-14.521l-2.209,0.987   C47.677,50.539,47.795,53.047,46.827,53.464z"/>
	<path d="M87.279,27.248l1.692-10.528l-12.593,5.705c0,0-1.146,0.594-1.093,2.356c0.054,1.765,0.576,5.551,0.576,5.551L59.37,37.705   C49.524,16.598,31.09,4.353,17.456,10.203C3.391,16.236-0.24,39.238,9.344,61.577c9.584,22.341,28.754,35.56,42.82,29.524   c13.757-5.901,17.523-28.036,8.713-49.907l16.553-7.4c0,0,2.502,2.89,3.792,4.094c1.289,1.204,2.492,0.733,2.492,0.733   l12.594-5.705L87.279,27.248z M51.549,81.189c-9.746,4.181-23.765-6.691-31.312-24.285c-7.548-17.592-5.766-35.244,3.979-39.425   c9.38-4.024,22.717,5.9,30.434,22.335l-3.806,1.702C44.952,28.956,36,20.91,30.329,23.343c-5.951,2.553-6.034,15.676-0.184,29.311   c5.849,13.634,15.416,22.617,21.368,20.063c5.718-2.453,6.016-14.666,0.841-27.713l3.809-1.703   C62.965,60.374,61.011,77.13,51.549,81.189z M48.814,61.092c-2.952,1.266-8.057-4.031-11.404-11.831   c-3.346-7.8-3.667-15.15-0.715-16.417c2.744-1.177,7.35,3.32,10.674,10.227l-2.278,1.019c-1.376-2.466-2.938-4.002-3.838-3.616   c-1.125,0.482-0.788,3.781,0.751,7.369c1.539,3.587,3.698,6.104,4.823,5.623c0.969-0.417,0.851-2.925-0.185-5.906l2.209-0.987   C51.47,53.632,51.524,59.929,48.814,61.092z"/>
</g>
</svg>